<svg width="171" height="45" viewBox="0 0 171 45" fill="none" xmlns="http://www.w3.org/2000/svg">
<path fill-rule="evenodd" clip-rule="evenodd" d="M27.3908 15.2172L20.5 9.15434L0.5 26.7514V2.5H40.5V10.4113C40.5 16.4741 32.2647 19.5055 27.3908 15.2172ZM13.6092 29.7828L20.5 35.8457L40.5 18.2486V42.5H0.5V34.5888C0.5 28.5259 8.73529 25.4945 13.6092 29.7828Z" fill="#FFBB54"/>
<path d="M72.02 33.39C70.6 33.39 69.265 33.11 68.015 32.55C66.765 31.98 65.665 31.2 64.715 30.21C63.775 29.21 63.035 28.05 62.495 26.73C61.965 25.41 61.7 24 61.7 22.5C61.7 21 61.965 19.59 62.495 18.27C63.035 16.95 63.775 15.795 64.715 14.805C65.665 13.805 66.765 13.025 68.015 12.465C69.265 11.895 70.6 11.61 72.02 11.61C73.72 11.61 75.285 12.005 76.715 12.795C78.145 13.585 79.33 14.635 80.27 15.945L78.035 17.145C77.335 16.225 76.45 15.495 75.38 14.955C74.32 14.405 73.2 14.13 72.02 14.13C70.93 14.13 69.91 14.35 68.96 14.79C68.02 15.23 67.195 15.835 66.485 16.605C65.775 17.375 65.22 18.265 64.82 19.275C64.42 20.285 64.22 21.36 64.22 22.5C64.22 23.65 64.42 24.73 64.82 25.74C65.23 26.75 65.79 27.64 66.5 28.41C67.22 29.18 68.05 29.785 68.99 30.225C69.94 30.655 70.95 30.87 72.02 30.87C73.24 30.87 74.37 30.595 75.41 30.045C76.46 29.485 77.335 28.755 78.035 27.855L80.27 29.07C79.33 30.38 78.145 31.43 76.715 32.22C75.285 33 73.72 33.39 72.02 33.39ZM89.0563 33.39C87.6763 33.39 86.4163 33.035 85.2763 32.325C84.1463 31.615 83.2413 30.665 82.5613 29.475C81.8913 28.275 81.5563 26.95 81.5563 25.5C81.5563 24.4 81.7513 23.375 82.1413 22.425C82.5313 21.465 83.0663 20.625 83.7463 19.905C84.4363 19.175 85.2363 18.605 86.1463 18.195C87.0563 17.785 88.0263 17.58 89.0563 17.58C90.4363 17.58 91.6913 17.935 92.8213 18.645C93.9613 19.355 94.8663 20.31 95.5363 21.51C96.2163 22.71 96.5563 24.04 96.5563 25.5C96.5563 26.59 96.3613 27.61 95.9713 28.56C95.5813 29.51 95.0413 30.35 94.3513 31.08C93.6713 31.8 92.8763 32.365 91.9663 32.775C91.0663 33.185 90.0963 33.39 89.0563 33.39ZM89.0563 30.87C89.9963 30.87 90.8413 30.625 91.5913 30.135C92.3513 29.635 92.9463 28.98 93.3763 28.17C93.8163 27.35 94.0363 26.46 94.0363 25.5C94.0363 24.52 93.8113 23.62 93.3613 22.8C92.9213 21.98 92.3263 21.325 91.5763 20.835C90.8263 20.345 89.9863 20.1 89.0563 20.1C88.1163 20.1 87.2713 20.35 86.5213 20.85C85.7713 21.34 85.1763 21.995 84.7363 22.815C84.2963 23.635 84.0763 24.53 84.0763 25.5C84.0763 26.5 84.3013 27.41 84.7513 28.23C85.2013 29.04 85.8063 29.685 86.5663 30.165C87.3263 30.635 88.1563 30.87 89.0563 30.87ZM98.2332 27.3V18H100.753V26.745C100.753 27.505 100.938 28.195 101.308 28.815C101.678 29.435 102.173 29.93 102.793 30.3C103.423 30.66 104.113 30.84 104.863 30.84C105.623 30.84 106.308 30.66 106.918 30.3C107.538 29.93 108.033 29.435 108.403 28.815C108.773 28.195 108.958 27.505 108.958 26.745V18H111.478L111.493 33H108.973L108.958 31.095C108.428 31.795 107.758 32.355 106.948 32.775C106.138 33.185 105.263 33.39 104.323 33.39C103.203 33.39 102.178 33.12 101.248 32.58C100.328 32.03 99.5932 31.295 99.0432 30.375C98.5032 29.455 98.2332 28.43 98.2332 27.3ZM114.507 33V18H117.027V19.875C117.557 19.175 118.227 18.62 119.037 18.21C119.847 17.79 120.727 17.58 121.677 17.58C122.257 17.58 122.817 17.655 123.357 17.805L122.337 20.325C121.927 20.195 121.527 20.13 121.137 20.13C120.387 20.13 119.697 20.315 119.067 20.685C118.447 21.045 117.952 21.535 117.582 22.155C117.212 22.775 117.027 23.465 117.027 24.225V33H114.507ZM129.775 33.285C128.965 33.255 128.175 33.105 127.405 32.835C126.645 32.555 125.975 32.18 125.395 31.71C124.825 31.23 124.41 30.68 124.15 30.06L126.31 29.13C126.46 29.47 126.73 29.79 127.12 30.09C127.51 30.39 127.96 30.63 128.47 30.81C128.98 30.99 129.495 31.08 130.015 31.08C130.565 31.08 131.08 30.995 131.56 30.825C132.04 30.655 132.43 30.405 132.73 30.075C133.04 29.735 133.195 29.33 133.195 28.86C133.195 28.36 133.025 27.97 132.685 27.69C132.355 27.4 131.935 27.175 131.425 27.015C130.925 26.845 130.415 26.685 129.895 26.535C128.865 26.275 127.945 25.965 127.135 25.605C126.325 25.235 125.685 24.77 125.215 24.21C124.755 23.64 124.525 22.915 124.525 22.035C124.525 21.105 124.78 20.3 125.29 19.62C125.81 18.94 126.49 18.415 127.33 18.045C128.17 17.675 129.07 17.49 130.03 17.49C131.24 17.49 132.345 17.75 133.345 18.27C134.345 18.79 135.09 19.495 135.58 20.385L133.555 21.57C133.385 21.21 133.125 20.895 132.775 20.625C132.425 20.345 132.025 20.125 131.575 19.965C131.125 19.805 130.665 19.72 130.195 19.71C129.615 19.69 129.07 19.765 128.56 19.935C128.06 20.105 127.655 20.365 127.345 20.715C127.045 21.055 126.895 21.48 126.895 21.99C126.895 22.49 127.055 22.87 127.375 23.13C127.705 23.39 128.13 23.6 128.65 23.76C129.18 23.91 129.755 24.085 130.375 24.285C131.285 24.575 132.135 24.91 132.925 25.29C133.715 25.67 134.35 26.145 134.83 26.715C135.32 27.285 135.56 27.99 135.55 28.83C135.55 29.75 135.275 30.555 134.725 31.245C134.175 31.925 133.46 32.445 132.58 32.805C131.71 33.165 130.775 33.325 129.775 33.285ZM144.574 33.39C143.194 33.39 141.934 33.035 140.794 32.325C139.664 31.615 138.759 30.665 138.079 29.475C137.409 28.275 137.074 26.95 137.074 25.5C137.074 24.4 137.269 23.375 137.659 22.425C138.049 21.465 138.584 20.625 139.264 19.905C139.954 19.175 140.754 18.605 141.664 18.195C142.574 17.785 143.544 17.58 144.574 17.58C145.704 17.58 146.739 17.81 147.679 18.27C148.629 18.72 149.439 19.35 150.109 20.16C150.789 20.97 151.294 21.91 151.624 22.98C151.964 24.05 152.089 25.195 151.999 26.415H139.759C139.879 27.265 140.159 28.025 140.599 28.695C141.039 29.355 141.599 29.88 142.279 30.27C142.969 30.66 143.734 30.86 144.574 30.87C145.474 30.87 146.289 30.64 147.019 30.18C147.749 29.71 148.339 29.07 148.789 28.26L151.354 28.86C150.754 30.19 149.849 31.28 148.639 32.13C147.429 32.97 146.074 33.39 144.574 33.39ZM139.684 24.435H149.464C149.384 23.595 149.114 22.83 148.654 22.14C148.194 21.44 147.609 20.88 146.899 20.46C146.189 20.04 145.414 19.83 144.574 19.83C143.734 19.83 142.964 20.035 142.264 20.445C141.564 20.855 140.984 21.41 140.524 22.11C140.074 22.8 139.794 23.575 139.684 24.435ZM166.499 18H169.019V33H166.499L166.394 30.465C165.924 31.335 165.274 32.04 164.444 32.58C163.624 33.12 162.644 33.39 161.504 33.39C160.404 33.39 159.374 33.185 158.414 32.775C157.454 32.355 156.604 31.78 155.864 31.05C155.134 30.31 154.564 29.46 154.154 28.5C153.744 27.54 153.539 26.505 153.539 25.395C153.539 24.325 153.739 23.315 154.139 22.365C154.539 21.415 155.094 20.585 155.804 19.875C156.524 19.155 157.354 18.595 158.294 18.195C159.234 17.785 160.244 17.58 161.324 17.58C162.504 17.58 163.539 17.86 164.429 18.42C165.319 18.97 166.039 19.685 166.589 20.565L166.499 18ZM161.459 30.945C162.449 30.945 163.304 30.705 164.024 30.225C164.754 29.735 165.314 29.075 165.704 28.245C166.104 27.415 166.304 26.5 166.304 25.5C166.304 24.48 166.104 23.56 165.704 22.74C165.304 21.91 164.739 21.255 164.009 20.775C163.289 20.285 162.439 20.04 161.459 20.04C160.469 20.04 159.569 20.285 158.759 20.775C157.949 21.265 157.304 21.925 156.824 22.755C156.354 23.575 156.119 24.49 156.119 25.5C156.119 26.51 156.364 27.43 156.854 28.26C157.344 29.08 157.994 29.735 158.804 30.225C159.614 30.705 160.499 30.945 161.459 30.945Z" fill="white"/>
</svg>
