<svg width="170" height="45" viewBox="0 0 170 45" fill="none" xmlns="http://www.w3.org/2000/svg">
<path fill-rule="evenodd" clip-rule="evenodd" d="M26.8908 15.2172L20 9.15434L0 26.7514V2.5H40V10.4113C40 16.4741 31.7647 19.5055 26.8908 15.2172ZM13.1092 29.7828L20 35.8457L40 18.2486V42.5H0V34.5888C0 28.5259 8.23529 25.4945 13.1092 29.7828Z" fill="#FFBB54"/>
<path d="M71.52 33.39C70.1 33.39 68.765 33.11 67.515 32.55C66.265 31.98 65.165 31.2 64.215 30.21C63.275 29.21 62.535 28.05 61.995 26.73C61.465 25.41 61.2 24 61.2 22.5C61.2 21 61.465 19.59 61.995 18.27C62.535 16.95 63.275 15.795 64.215 14.805C65.165 13.805 66.265 13.025 67.515 12.465C68.765 11.895 70.1 11.61 71.52 11.61C73.22 11.61 74.785 12.005 76.215 12.795C77.645 13.585 78.83 14.635 79.77 15.945L77.535 17.145C76.835 16.225 75.95 15.495 74.88 14.955C73.82 14.405 72.7 14.13 71.52 14.13C70.43 14.13 69.41 14.35 68.46 14.79C67.52 15.23 66.695 15.835 65.985 16.605C65.275 17.375 64.72 18.265 64.32 19.275C63.92 20.285 63.72 21.36 63.72 22.5C63.72 23.65 63.92 24.73 64.32 25.74C64.73 26.75 65.29 27.64 66 28.41C66.72 29.18 67.55 29.785 68.49 30.225C69.44 30.655 70.45 30.87 71.52 30.87C72.74 30.87 73.87 30.595 74.91 30.045C75.96 29.485 76.835 28.755 77.535 27.855L79.77 29.07C78.83 30.38 77.645 31.43 76.215 32.22C74.785 33 73.22 33.39 71.52 33.39ZM88.5563 33.39C87.1763 33.39 85.9163 33.035 84.7763 32.325C83.6463 31.615 82.7413 30.665 82.0613 29.475C81.3913 28.275 81.0563 26.95 81.0563 25.5C81.0563 24.4 81.2513 23.375 81.6413 22.425C82.0313 21.465 82.5663 20.625 83.2463 19.905C83.9363 19.175 84.7363 18.605 85.6463 18.195C86.5563 17.785 87.5263 17.58 88.5563 17.58C89.9363 17.58 91.1913 17.935 92.3213 18.645C93.4613 19.355 94.3663 20.31 95.0363 21.51C95.7163 22.71 96.0563 24.04 96.0563 25.5C96.0563 26.59 95.8613 27.61 95.4713 28.56C95.0813 29.51 94.5413 30.35 93.8513 31.08C93.1713 31.8 92.3763 32.365 91.4663 32.775C90.5663 33.185 89.5963 33.39 88.5563 33.39ZM88.5563 30.87C89.4963 30.87 90.3413 30.625 91.0913 30.135C91.8513 29.635 92.4463 28.98 92.8763 28.17C93.3163 27.35 93.5363 26.46 93.5363 25.5C93.5363 24.52 93.3113 23.62 92.8613 22.8C92.4213 21.98 91.8263 21.325 91.0763 20.835C90.3263 20.345 89.4863 20.1 88.5563 20.1C87.6163 20.1 86.7713 20.35 86.0213 20.85C85.2713 21.34 84.6763 21.995 84.2363 22.815C83.7963 23.635 83.5763 24.53 83.5763 25.5C83.5763 26.5 83.8013 27.41 84.2513 28.23C84.7013 29.04 85.3063 29.685 86.0663 30.165C86.8263 30.635 87.6563 30.87 88.5563 30.87ZM97.7332 27.3V18H100.253V26.745C100.253 27.505 100.438 28.195 100.808 28.815C101.178 29.435 101.673 29.93 102.293 30.3C102.923 30.66 103.613 30.84 104.363 30.84C105.123 30.84 105.808 30.66 106.418 30.3C107.038 29.93 107.533 29.435 107.903 28.815C108.273 28.195 108.458 27.505 108.458 26.745V18H110.978L110.993 33H108.473L108.458 31.095C107.928 31.795 107.258 32.355 106.448 32.775C105.638 33.185 104.763 33.39 103.823 33.39C102.703 33.39 101.678 33.12 100.748 32.58C99.8282 32.03 99.0932 31.295 98.5432 30.375C98.0032 29.455 97.7332 28.43 97.7332 27.3ZM114.007 33V18H116.527V19.875C117.057 19.175 117.727 18.62 118.537 18.21C119.347 17.79 120.227 17.58 121.177 17.58C121.757 17.58 122.317 17.655 122.857 17.805L121.837 20.325C121.427 20.195 121.027 20.13 120.637 20.13C119.887 20.13 119.197 20.315 118.567 20.685C117.947 21.045 117.452 21.535 117.082 22.155C116.712 22.775 116.527 23.465 116.527 24.225V33H114.007ZM129.275 33.285C128.465 33.255 127.675 33.105 126.905 32.835C126.145 32.555 125.475 32.18 124.895 31.71C124.325 31.23 123.91 30.68 123.65 30.06L125.81 29.13C125.96 29.47 126.23 29.79 126.62 30.09C127.01 30.39 127.46 30.63 127.97 30.81C128.48 30.99 128.995 31.08 129.515 31.08C130.065 31.08 130.58 30.995 131.06 30.825C131.54 30.655 131.93 30.405 132.23 30.075C132.54 29.735 132.695 29.33 132.695 28.86C132.695 28.36 132.525 27.97 132.185 27.69C131.855 27.4 131.435 27.175 130.925 27.015C130.425 26.845 129.915 26.685 129.395 26.535C128.365 26.275 127.445 25.965 126.635 25.605C125.825 25.235 125.185 24.77 124.715 24.21C124.255 23.64 124.025 22.915 124.025 22.035C124.025 21.105 124.28 20.3 124.79 19.62C125.31 18.94 125.99 18.415 126.83 18.045C127.67 17.675 128.57 17.49 129.53 17.49C130.74 17.49 131.845 17.75 132.845 18.27C133.845 18.79 134.59 19.495 135.08 20.385L133.055 21.57C132.885 21.21 132.625 20.895 132.275 20.625C131.925 20.345 131.525 20.125 131.075 19.965C130.625 19.805 130.165 19.72 129.695 19.71C129.115 19.69 128.57 19.765 128.06 19.935C127.56 20.105 127.155 20.365 126.845 20.715C126.545 21.055 126.395 21.48 126.395 21.99C126.395 22.49 126.555 22.87 126.875 23.13C127.205 23.39 127.63 23.6 128.15 23.76C128.68 23.91 129.255 24.085 129.875 24.285C130.785 24.575 131.635 24.91 132.425 25.29C133.215 25.67 133.85 26.145 134.33 26.715C134.82 27.285 135.06 27.99 135.05 28.83C135.05 29.75 134.775 30.555 134.225 31.245C133.675 31.925 132.96 32.445 132.08 32.805C131.21 33.165 130.275 33.325 129.275 33.285ZM144.074 33.39C142.694 33.39 141.434 33.035 140.294 32.325C139.164 31.615 138.259 30.665 137.579 29.475C136.909 28.275 136.574 26.95 136.574 25.5C136.574 24.4 136.769 23.375 137.159 22.425C137.549 21.465 138.084 20.625 138.764 19.905C139.454 19.175 140.254 18.605 141.164 18.195C142.074 17.785 143.044 17.58 144.074 17.58C145.204 17.58 146.239 17.81 147.179 18.27C148.129 18.72 148.939 19.35 149.609 20.16C150.289 20.97 150.794 21.91 151.124 22.98C151.464 24.05 151.589 25.195 151.499 26.415H139.259C139.379 27.265 139.659 28.025 140.099 28.695C140.539 29.355 141.099 29.88 141.779 30.27C142.469 30.66 143.234 30.86 144.074 30.87C144.974 30.87 145.789 30.64 146.519 30.18C147.249 29.71 147.839 29.07 148.289 28.26L150.854 28.86C150.254 30.19 149.349 31.28 148.139 32.13C146.929 32.97 145.574 33.39 144.074 33.39ZM139.184 24.435H148.964C148.884 23.595 148.614 22.83 148.154 22.14C147.694 21.44 147.109 20.88 146.399 20.46C145.689 20.04 144.914 19.83 144.074 19.83C143.234 19.83 142.464 20.035 141.764 20.445C141.064 20.855 140.484 21.41 140.024 22.11C139.574 22.8 139.294 23.575 139.184 24.435ZM165.999 18H168.519V33H165.999L165.894 30.465C165.424 31.335 164.774 32.04 163.944 32.58C163.124 33.12 162.144 33.39 161.004 33.39C159.904 33.39 158.874 33.185 157.914 32.775C156.954 32.355 156.104 31.78 155.364 31.05C154.634 30.31 154.064 29.46 153.654 28.5C153.244 27.54 153.039 26.505 153.039 25.395C153.039 24.325 153.239 23.315 153.639 22.365C154.039 21.415 154.594 20.585 155.304 19.875C156.024 19.155 156.854 18.595 157.794 18.195C158.734 17.785 159.744 17.58 160.824 17.58C162.004 17.58 163.039 17.86 163.929 18.42C164.819 18.97 165.539 19.685 166.089 20.565L165.999 18ZM160.959 30.945C161.949 30.945 162.804 30.705 163.524 30.225C164.254 29.735 164.814 29.075 165.204 28.245C165.604 27.415 165.804 26.5 165.804 25.5C165.804 24.48 165.604 23.56 165.204 22.74C164.804 21.91 164.239 21.255 163.509 20.775C162.789 20.285 161.939 20.04 160.959 20.04C159.969 20.04 159.069 20.285 158.259 20.775C157.449 21.265 156.804 21.925 156.324 22.755C155.854 23.575 155.619 24.49 155.619 25.5C155.619 26.51 155.864 27.43 156.354 28.26C156.844 29.08 157.494 29.735 158.304 30.225C159.114 30.705 159.999 30.945 160.959 30.945Z" fill="#141522"/>
</svg>
